<?xml version="1.0" encoding="UTF-8" standalone="no"?>
<!-- Created with Inkscape (http://www.inkscape.org/) -->

<svg
   xmlns:dc="http://purl.org/dc/elements/1.1/"
   xmlns:cc="http://creativecommons.org/ns#"
   xmlns:rdf="http://www.w3.org/1999/02/22-rdf-syntax-ns#"
   xmlns:svg="http://www.w3.org/2000/svg"
   xmlns="http://www.w3.org/2000/svg"
   xmlns:xlink="http://www.w3.org/1999/xlink"
   xmlns:sodipodi="http://sodipodi.sourceforge.net/DTD/sodipodi-0.dtd"
   xmlns:inkscape="http://www.inkscape.org/namespaces/inkscape"
   width="127.34982mm"
   height="161.6315mm"
   viewBox="0 0 127.34982 161.6315"
   version="1.1"
   id="svg8"
   inkscape:version="0.91 r13725"
   sodipodi:docname="Princesse.svg">
  <defs
     id="defs2">
    <pattern
       inkscape:collect="always"
       xlink:href="#Strips1_1"
       id="pattern6033"
       patternTransform="matrix(37.795276,0,0,37.795276,-189.49999,-552.01969)" />
    <pattern
       inkscape:isstock="true"
       inkscape:stockid="Stripes 1:1"
       id="Strips1_1"
       patternTransform="translate(0,0) scale(10,10)"
       height="1"
       width="2"
       patternUnits="userSpaceOnUse"
       inkscape:collect="always">
      <rect
         id="rect5272"
         height="2"
         width="1"
         y="-0.5"
         x="0"
         style="fill:black;stroke:none" />
    </pattern>
    <pattern
       patternUnits="userSpaceOnUse"
       width="401.00002"
       height="91"
       patternTransform="matrix(0.26458333,0,0,0.26458333,50.13854,146.05521)"
       id="pattern6030">
      <path
         sodipodi:nodetypes="ccccccc"
         inkscape:connector-curvature="0"
         id="path4552"
         d="M 120.5,0.49999997 0.5,20.499975 0.50000378,90.5 H 400.50002 V 20.499975 l -120,-19.99997503 z"
         style="fill:url(#pattern6033);fill-opacity:1;stroke:#000000;stroke-width:0.99999994px;stroke-linecap:butt;stroke-linejoin:miter;stroke-opacity:1" />
    </pattern>
  </defs>
  <sodipodi:namedview
     id="base"
     pagecolor="#ffffff"
     bordercolor="#666666"
     borderopacity="1.0"
     inkscape:pageopacity="0.0"
     inkscape:pageshadow="2"
     inkscape:zoom="0.53033009"
     inkscape:cx="-130.50185"
     inkscape:cy="435.77077"
     inkscape:document-units="mm"
     inkscape:current-layer="layer1"
     showgrid="false"
     inkscape:snap-to-guides="true"
     inkscape:snap-grids="true"
     inkscape:snap-others="false"
     inkscape:object-nodes="true"
     inkscape:snap-nodes="true"
     inkscape:snap-global="true"
     inkscape:snap-bbox="false"
     inkscape:bbox-nodes="false"
     inkscape:bbox-paths="false"
     inkscape:snap-midpoints="false"
     inkscape:snap-center="true"
     inkscape:snap-smooth-nodes="true"
     inkscape:object-paths="true"
     inkscape:snap-intersection-paths="true"
     inkscape:window-width="1366"
     inkscape:window-height="705"
     inkscape:window-x="-8"
     inkscape:window-y="-8"
     inkscape:window-maximized="1"
     fit-margin-left="10"
     fit-margin-top="10"
     fit-margin-right="10"
     fit-margin-bottom="10">
    <inkscape:grid
       type="xygrid"
       id="grid3733"
       originx="-45.129997"
       originy="-111.17583" />
  </sodipodi:namedview>
  <metadata
     id="metadata5">
    <rdf:RDF>
      <cc:Work
         rdf:about="">
        <dc:format>image/svg+xml</dc:format>
        <dc:type
           rdf:resource="http://purl.org/dc/dcmitype/StillImage" />
        <dc:title></dc:title>
      </cc:Work>
    </rdf:RDF>
  </metadata>
  <g
     inkscape:label="Calque 1"
     inkscape:groupmode="layer"
     id="layer1"
     transform="translate(-45.129999,-24.192662)">
    <path
       style="fill:#ffe5ab;fill-opacity:1;stroke:#000000;stroke-width:0.86500001;stroke-linecap:butt;stroke-linejoin:miter;stroke-miterlimit:4;stroke-dasharray:none;stroke-opacity:1"
       d="m 87.566141,133.09868 42.333329,0 0,18.52084 -42.33333,0 z"
       id="path4550"
       inkscape:connector-curvature="0"
       sodipodi:nodetypes="ccccc" />
    <path
       style="fill:#ffe5ab;fill-opacity:1;stroke:#000000;stroke-width:0.86500001;stroke-linecap:butt;stroke-linejoin:miter;stroke-miterlimit:4;stroke-dasharray:none;stroke-opacity:1"
       d="m 68.96805,63.637508 39.6875,-7.9375 39.6875,7.9375 0,60.854162 -39.6875,18.52084 -39.6875,-18.52084 z"
       id="path3731"
       inkscape:connector-curvature="0"
       sodipodi:nodetypes="ccccccc" />
    <path
       style="fill:#ffe5ab;fill-opacity:1;stroke:#000000;stroke-width:0.86500001;stroke-linecap:butt;stroke-linejoin:miter;stroke-miterlimit:4;stroke-dasharray:none;stroke-opacity:1"
       d="m 87.312498,151.47917 -31.749999,5.29166 10e-7,18.52084 105.83333,0 0,-18.52084 -31.75,-5.29166 z"
       id="path6037"
       inkscape:connector-curvature="0"
       sodipodi:nodetypes="ccccccc" />
    <rect
       style="opacity:1;fill:#00000c;fill-opacity:1;stroke:#000000;stroke-width:0.86500001;stroke-miterlimit:4;stroke-dasharray:none;stroke-opacity:1"
       id="rect7019"
       width="3.968755"
       height="18.52083"
       x="121.70834"
       y="85.333336" />
    <rect
       style="opacity:1;fill:#00000c;fill-opacity:1;stroke:#000000;stroke-width:0.86500001;stroke-miterlimit:4;stroke-dasharray:none;stroke-opacity:1"
       id="rect7019-9"
       width="3.9687603"
       height="18.52083"
       x="91.281242"
       y="85.333336" />
    <path
       style="fill:#ff5aab;fill-opacity:1;stroke:#000000;stroke-width:1.06500006;stroke-linecap:butt;stroke-linejoin:miter;stroke-miterlimit:4;stroke-dasharray:none;stroke-opacity:1"
       d="m 56.885417,175.29167 c 6.226029,-4.43437 5.20145,-11.31808 3.839878,-19.3813 l 13.206807,-2.20114 c 35.046368,20.02592 52.806748,7.59653 68.948078,-0.0243 l 13.09411,2.18231 c -1.3522,10.59379 1.3947,14.20969 5.42154,19.42443 z"
       id="path824"
       inkscape:connector-curvature="0"
       sodipodi:nodetypes="ccccccc" />
    <path
       style="fill:#ffd42a;fill-opacity:1;stroke:#000000;stroke-width:0.26458332px;stroke-linecap:butt;stroke-linejoin:miter;stroke-opacity:1"
       d="m 79.375,69.458333 -5.820834,57.414587 -3.439583,27.25208 -1.322916,21.16667 -13.229167,0 1.322917,-18.52084 6.614582,-97.895829 44.979171,-7.9375 44.97916,7.9375 6.61459,97.895829 1.32291,18.52084 -11.90625,0 -2.13855,-21.16667 -3.43958,-27.25208 -6.32812,-57.414586 -29.10416,-5.291667 z"
       id="path826"
       inkscape:connector-curvature="0"
       sodipodi:nodetypes="ccccccccccccccccc" />
    <path
       style="fill:#d4aa00;fill-opacity:1;stroke:#000000;stroke-width:0.26458332px;stroke-linecap:butt;stroke-linejoin:miter;stroke-opacity:1"
       d="m 73.554166,126.87292 14.011973,6.22576 -0.253643,18.38049 -17.197914,2.64583 z"
       id="path838"
       inkscape:connector-curvature="0" />
    <path
       style="fill:#d4aa00;fill-opacity:1;stroke:#000000;stroke-width:0.26458332px;stroke-linecap:butt;stroke-linejoin:miter;stroke-opacity:1"
       d="m 143.91145,126.87292 -14.01198,6.22576 0.25365,18.38049 17.19791,2.64583 z"
       id="path838-3"
       inkscape:connector-curvature="0" />
    <path
       style="fill:#ffff00;stroke:#000000;stroke-width:0.96499997;stroke-linecap:butt;stroke-linejoin:miter;stroke-miterlimit:4;stroke-dasharray:none;stroke-opacity:1"
       d="m 66.145832,58.875001 10e-7,-2.645834 5.291667,-2.645834 2.645833,-7.9375 2.645834,7.9375 L 79.375,50.9375 82.020833,43 l 2.645834,7.9375 2.645833,-2.645833 2.645833,-7.9375 2.645834,7.9375 2.645833,-2.645834 2.645833,-7.9375 2.645837,7.9375 L 103.1875,43 108.47917,35.062501 113.77083,43 l 2.64584,2.645833 2.64583,-7.9375 2.64583,7.9375 2.64584,2.645834 2.64583,-7.9375 2.64583,7.9375 2.64584,2.645833 2.64583,-7.9375 2.64583,7.9375 2.64584,2.645833 2.64583,-7.9375 2.64583,7.9375 5.29167,2.645834 0,2.645834 -42.33333,-7.9375 z"
       id="path855"
       inkscape:connector-curvature="0"
       sodipodi:nodetypes="ccccccccccccccccccccccccccccccccc" />
  </g>
</svg>
