<svg id="svg8" xmlns="http://www.w3.org/2000/svg" viewBox="0 0 519.86 805.43"><defs><style>.cls-1{fill:#227a94;fill-opacity:0.99;stroke:#505157;stroke-width:4px;}.cls-1,.cls-2{stroke-linecap:square;stroke-linejoin:round;}.cls-2{fill:#f5efff;stroke:#5eacc6;stroke-width:7px;}.cls-3,.cls-4,.cls-5{fill:red;}.cls-3,.cls-4,.cls-5,.cls-6,.cls-7,.cls-8{stroke:#000;}.cls-3,.cls-7{stroke-width:0.87px;}.cls-4{stroke-width:0.67px;}.cls-5{stroke-width:0.5px;}.cls-6{fill:#ffe5ab;stroke-width:0.76px;}.cls-7{fill:#00000c;}.cls-8{fill:#ff0;stroke-width:0.56px;}.cls-9{font-size:93px;font-family:Magra-Bold, Magra;font-weight:700;}.cls-10,.cls-11,.cls-9{fill:#505157;}.cls-10{font-size:65px;}.cls-10,.cls-11{font-family:Magra, Magra;}.cls-11{font-size:44px;}</style></defs><title>Plan de travail 1</title><path id="rect815" class="cls-1" d="M55.37,2H464.5C494,2,517.86,29.21,517.86,62.77v679.9c0,33.56-23.89,60.77-53.37,60.77H55.37C25.89,803.43,2,776.22,2,742.66V62.77C2,29.21,25.89,2,55.37,2Z"/><ellipse id="path817" class="cls-2" cx="75.69" cy="75.69" rx="57.04" ry="55.27"/><path id="rect821" class="cls-2" d="M196.47,20.42H470.78c15.83,0,28.66,14.61,28.66,32.63V90c0,18-12.83,32.63-28.66,32.63H196.47c-15.83,0-28.66-14.61-28.66-32.63V53.06C167.81,35,180.64,20.42,196.47,20.42Z"/><path id="rect821-1" class="cls-2" d="M104.35,149.39H415.51c15.83,0,28.66,14.61,28.66,32.63V512.86c0,18-12.83,32.63-28.66,32.63H104.35c-15.83,0-28.66-14.61-28.66-32.63V182C75.69,164,88.53,149.39,104.35,149.39Z"/><path id="rect821-0" class="cls-2" d="M49.08,573.13h421.7c15.83,0,28.66,14.61,28.66,32.63v146.6c0,18-12.83,32.63-28.66,32.63H49.08c-15.83,0-28.66-14.61-28.66-32.63V605.77C20.42,587.74,33.25,573.13,49.08,573.13Z"/><g id="layer1"><path id="path4550" class="cls-3" d="M225.27,426.78H305.6v35.14H225.27Z"/><path id="path5638" class="cls-4" d="M340.59,295l-.33-16.57,10-20.08h10l10,20.08,10,30.12,20.08-50.2-10-40.16-20.08-20.08-35.14,2.51-20.08,15.06L280,250.8l-14.73,29.12m0,0L280,250.8l-30.12-22.59L270,208.12l20.08,10L270,188H229.81l-30.12,20.08v30.12L215,290m-25.37,6h-5l-20.08-2.51-15.06,5v30.12l-30.12-40.16,10-30.12,30.12-20.08H179.6l25.25,17.43L215,290"/><path id="path3731" class="cls-5" d="M190,295l75.31-15.06L340.59,295V410.45l-75.31,35.14L190,410.45Z"/><path id="path6037" class="cls-3" d="M224.79,461.66l-60.25,10v35.14H365.36V471.7l-60.25-10Z"/><path id="path4554" class="cls-6" d="M199.69,301,265,291l65.27,10V406.43L265,436.56l-65.27-30.12Z"/><rect id="rect7019" class="cls-7" x="290.05" y="336.15" width="7.53" height="35.14"/><rect id="rect7019-9" class="cls-7" x="232.32" y="336.15" width="7.53" height="35.14"/><circle id="path5640" class="cls-8" cx="290.05" cy="215.66" r="10.04"/><circle id="path5642" class="cls-8" cx="380.42" cy="306.02" r="10.04"/><circle id="path5642-9" class="cls-8" cx="149.48" cy="326.11" r="10.04"/><path id="path5693" class="cls-8" d="M224.79,461.66l-55.23,10,55.23,5-10,20.08L265,476.72l47.69,20.08-7.53-20.08,55.23-5-55.23-10Z"/></g><text class="cls-9" transform="translate(52.46 100.03)">2</text><text class="cls-10" transform="translate(246.66 93.58)">Clown</text><text class="cls-11" transform="translate(54.02 667.04)">Consultez la main d’un <tspan x="144.96" y="52.8">joueur</tspan></text></svg>