<svg id="svg8" xmlns="http://www.w3.org/2000/svg" viewBox="0 0 519.86 805.43"><defs><style>.cls-1{fill:#227a94;fill-opacity:0.99;stroke:#505157;stroke-width:4px;}.cls-1,.cls-10,.cls-2,.cls-9{stroke-linecap:square;stroke-linejoin:round;}.cls-2{fill:#f5efff;stroke:#5eacc6;stroke-width:7px;}.cls-3{fill:#ffe5ab;}.cls-11,.cls-12,.cls-3,.cls-4,.cls-5,.cls-6,.cls-7,.cls-8{stroke:#000;}.cls-3,.cls-4,.cls-5{stroke-width:0.87px;}.cls-4,.cls-6{fill:#d45500;}.cls-5{fill:#00000c;}.cls-6{stroke-width:0.76px;}.cls-7{fill-opacity:0.6;}.cls-11,.cls-7,.cls-8{stroke-width:0.26px;}.cls-8{fill:red;}.cls-10,.cls-9{fill:#fc0;stroke:#000009;stroke-width:0.98px;}.cls-10{fill-opacity:0.96;}.cls-11,.cls-12{fill:#a00;}.cls-12{stroke-width:0.26px;}.cls-13{font-size:93px;font-family:Magra-Bold, Magra;font-weight:700;}.cls-13,.cls-14,.cls-15{fill:#505157;}.cls-14{font-size:65px;}.cls-14,.cls-15{font-family:Magra, Magra;}.cls-15{font-size:33px;}</style></defs><title>Plan de travail 11</title><path id="rect815" class="cls-1" d="M55.37,2H464.5C494,2,517.86,29.21,517.86,62.77v679.9c0,33.56-23.89,60.77-53.37,60.77H55.37C25.89,803.43,2,776.22,2,742.66V62.77C2,29.21,25.89,2,55.37,2Z"/><ellipse id="path817" class="cls-2" cx="75.69" cy="75.69" rx="57.04" ry="55.27"/><path id="rect821" class="cls-2" d="M196.47,20.42H470.78c15.83,0,28.66,14.61,28.66,32.63V90c0,18-12.83,32.63-28.66,32.63H196.47c-15.83,0-28.66-14.61-28.66-32.63V53.06C167.81,35,180.64,20.42,196.47,20.42Z"/><path id="rect821-1" class="cls-2" d="M104.35,149.39H415.51c15.83,0,28.66,14.61,28.66,32.63V512.86c0,18-12.83,32.63-28.66,32.63H104.35c-15.83,0-28.66-14.61-28.66-32.63V182C75.69,164,88.53,149.39,104.35,149.39Z"/><path id="rect821-0" class="cls-2" d="M49.08,573.13h421.7c15.83,0,28.66,14.61,28.66,32.63v146.6c0,18-12.83,32.63-28.66,32.63H49.08c-15.83,0-28.66-14.61-28.66-32.63V605.77C20.42,587.74,33.25,573.13,49.08,573.13Z"/><g id="layer1"><path id="path4550" class="cls-3" d="M225.26,380.34h78.56v34.37H225.26Z"/><path id="path3731" class="cls-3" d="M190.75,251.44l73.65-14.73L338,251.44V364.37L264.4,398.74l-73.65-34.37Z"/><path id="path6037" class="cls-4" d="M224.79,414.45l-58.92,9.82v34.37H362.27V424.27L311,415.73l-7.65-1.28Z"/><rect id="rect7019" class="cls-5" x="288.62" y="291.7" width="7.36" height="34.37"/><rect id="rect7019-9" class="cls-5" x="232.16" y="291.7" width="7.36" height="34.37"/><path id="path824" class="cls-6" d="M190.75,262.25h147v-9.82L264.23,237.7l-73.48,14.73Z"/><path id="path825" class="cls-7" d="M264.07,340.8l-9.82,4.91-19.64,4.91-4.91,4.91,14.73,4.91,14.73-4.91,4.91-4.91,4.91,4.91,14.73,4.91,14.73-4.91-4.91-4.91-19.64-4.91Z"/><path id="path844" class="cls-8" d="M200.24,439,180.6,419.36,215,414.45Z"/><ellipse id="path827" class="cls-9" cx="200.24" cy="437.77" rx="9.82" ry="8.59"/><path id="path844-4" class="cls-8" d="M327.9,439l19.64-19.64-34.37-4.91Z"/><ellipse id="path827-0" class="cls-10" cx="327.9" cy="437.77" rx="9.82" ry="8.59"/><path id="path861" class="cls-11" d="M180.11,419.36c-1.47,0-2,2.45-2,2.45l4.42-.49s-1.47-2-2.45-2Z"/><path id="path861-6" class="cls-11" d="M348,419.36c1.47,0,2,2.45,2,2.45l-4.42-.49s1.47-2,2.45-2Z"/><path id="path893" class="cls-12" d="M312.52,414.43a3.1,3.1,0,0,0-.89.85l1.9.32C313.66,415.44,313,414.1,312.52,414.43Z"/><path id="path893-7" class="cls-12" d="M215.62,414.42a3.1,3.1,0,0,1,.89.85l-1.9.32C214.48,415.43,215.16,414.09,215.62,414.42Z"/></g><text class="cls-13" transform="translate(52.46 96.43)">7</text><text class="cls-14" transform="translate(218.58 95.1)">Minister</text><text class="cls-15" transform="translate(67.39 610.34)">Si vous gardez cette carte en <tspan x="-33.07" y="39">main, calculez le total des valeurs </tspan><tspan x="-33.59" y="78">de votre main à chaque pioche. Si </tspan><tspan x="-13.3" y="117">celui-ci est égal ou supérieur à </tspan><tspan x="27.85" y="156">douze, vous êtes éliminé</tspan></text></svg>