<svg id="svg8" xmlns="http://www.w3.org/2000/svg" viewBox="0 0 519.86 805.43"><defs><style>.cls-1{fill:#227a94;fill-opacity:0.99;stroke:#505157;stroke-width:4px;}.cls-1,.cls-2{stroke-linecap:square;stroke-linejoin:round;}.cls-2{fill:#f5efff;stroke:#5eacc6;stroke-width:7px;}.cls-3{fill:#ffe5ab;}.cls-3,.cls-4,.cls-5,.cls-6,.cls-7,.cls-8{stroke:#000;}.cls-3,.cls-4{stroke-width:0.87px;}.cls-4{fill:#00000c;}.cls-5{fill:#ff5aab;stroke-width:1.07px;}.cls-6{fill:#ffd42a;}.cls-6,.cls-7{stroke-width:0.26px;}.cls-7{fill:#d4aa00;}.cls-8{fill:#ff0;stroke-width:0.96px;}.cls-9{font-size:93px;font-family:Magra-Bold, Magra;font-weight:700;}.cls-10,.cls-11,.cls-9{fill:#505157;}.cls-10{font-size:44px;}.cls-10,.cls-11{font-family:Magra, Magra;}.cls-11{font-size:65px;}</style></defs><title>Plan de travail 18</title><path id="rect815" class="cls-1" d="M55.37,2H464.5C494,2,517.86,29.21,517.86,62.77v679.9c0,33.56-23.89,60.77-53.37,60.77H55.37C25.89,803.43,2,776.22,2,742.66V62.77C2,29.21,25.89,2,55.37,2Z"/><ellipse id="path817" class="cls-2" cx="75.69" cy="75.69" rx="57.04" ry="55.27"/><path id="rect821" class="cls-2" d="M196.47,20.42H470.78c15.83,0,28.66,14.61,28.66,32.63V90c0,18-12.83,32.63-28.66,32.63H196.47c-15.83,0-28.66-14.61-28.66-32.63V53.06C167.81,35,180.64,20.42,196.47,20.42Z"/><path id="rect821-1" class="cls-2" d="M104.35,149.39H415.51c15.83,0,28.66,14.61,28.66,32.63V512.86c0,18-12.83,32.63-28.66,32.63H104.35c-15.83,0-28.66-14.61-28.66-32.63V182C75.69,164,88.53,149.39,104.35,149.39Z"/><path id="rect821-0" class="cls-2" d="M49.08,573.13h421.7c15.83,0,28.66,14.61,28.66,32.63v146.6c0,18-12.83,32.63-28.66,32.63H49.08c-15.83,0-28.66-14.61-28.66-32.63V605.77C20.42,587.74,33.25,573.13,49.08,573.13Z"/><g id="layer1"><path id="path4550" class="cls-3" d="M228,390.47H310.4v36.06H228Z"/><path id="path3731" class="cls-3" d="M191.76,255.23,269,239.78l77.27,15.45V373.72L269,409.78l-77.27-36.06Z"/><path id="path6037" class="cls-3" d="M227.48,426.26l-61.82,10.3v36.06H371.72V436.56l-61.82-10.3Z"/><rect id="rect7019" class="cls-4" x="294.45" y="297.47" width="7.73" height="36.06"/><rect id="rect7019-9" class="cls-4" x="235.21" y="297.47" width="7.73" height="36.06"/><path id="path824" class="cls-5" d="M168.24,472.62c12.12-8.63,10.13-22,7.48-37.74l25.71-4.29c68.24,39,102.82,14.79,134.24,0l25.49,4.25c-2.63,20.63,2.72,27.67,10.56,37.82Z"/><path id="path826" class="cls-6" d="M212,266.57,200.69,378.35,194,431.41l-2.58,41.21H165.66l2.58-36.06L181.12,246l87.58-15.45L356.27,246l12.88,190.6,2.58,36.06H348.54l-4.16-41.21-6.7-53.06L325.36,266.57l-56.67-10.3Z"/><path id="path838" class="cls-7" d="M200.69,378.35,228,390.47l-.49,35.79L194,431.41Z"/><path id="path838-3" class="cls-7" d="M337.68,378.35,310.4,390.47l.49,35.79,33.48,5.15Z"/><path id="path855" class="cls-8" d="M186.27,246v-5.15l10.3-5.15,5.15-15.45,5.15,15.45L212,230.5l5.15-15.45,5.15,15.45,5.15-5.15,5.15-15.45,5.15,15.45,5.15-5.15,5.15-15.45,5.15,15.45,5.15-5.15,10.3-15.45L279,215.05l5.15,5.15,5.15-15.45,5.15,15.45,5.15,5.15,5.15-15.45,5.15,15.45,5.15,5.15,5.15-15.45,5.15,15.45,5.15,5.15,5.15-15.45,5.15,15.45,10.3,5.15V246L268.69,230.5Z"/></g><text class="cls-9" transform="translate(49.46 109.02)">8</text><text class="cls-10" transform="translate(50.45 667.64)">Si vous défaussez cette <tspan x="-3.7" y="52.8">carte, vous êtes éliminé</tspan></text><text class="cls-11" transform="translate(204.51 93.58)">Princesse</text></svg>