<svg id="svg8" xmlns="http://www.w3.org/2000/svg" viewBox="0 0 519.86 805.43"><defs><style>.cls-1{fill:#227a94;fill-opacity:0.99;stroke:#505157;stroke-width:4px;}.cls-1,.cls-2{stroke-linecap:square;stroke-linejoin:round;}.cls-2{fill:#f5efff;stroke:#5eacc6;stroke-width:7px;}.cls-3,.cls-5,.cls-8{fill:none;}.cls-4{fill:#b3b3b3;}.cls-10,.cls-4,.cls-5,.cls-8,.cls-9{stroke:#000;}.cls-10,.cls-4{stroke-width:0.87px;}.cls-5{stroke-width:0.26px;}.cls-6,.cls-9{fill:#ffe5ab;}.cls-6,.cls-7{fill-opacity:0;}.cls-10,.cls-7{fill:#00000c;}.cls-8{stroke-width:0.26px;}.cls-9{stroke-width:0.76px;}.cls-11{font-size:93px;font-family:Magra-Bold, Magra;font-weight:700;}.cls-11,.cls-12,.cls-13{fill:#505157;}.cls-12{font-size:37px;}.cls-12,.cls-13{font-family:Magra, Magra;}.cls-13{font-size:65px;}</style></defs><title>Plan de travail 19</title><path id="rect815" class="cls-1" d="M55.37,2H464.5C494,2,517.86,29.21,517.86,62.77v679.9c0,33.56-23.89,60.77-53.37,60.77H55.37C25.89,803.43,2,776.22,2,742.66V62.77C2,29.21,25.89,2,55.37,2Z"/><ellipse id="path817" class="cls-2" cx="75.69" cy="75.69" rx="57.04" ry="55.27"/><path id="rect821" class="cls-2" d="M196.47,20.42H470.78c15.83,0,28.66,14.61,28.66,32.63V90c0,18-12.83,32.63-28.66,32.63H196.47c-15.83,0-28.66-14.61-28.66-32.63V53.06C167.81,35,180.64,20.42,196.47,20.42Z"/><path id="rect821-1" class="cls-2" d="M104.35,149.39H415.51c15.83,0,28.66,14.61,28.66,32.63V512.86c0,18-12.83,32.63-28.66,32.63H104.35c-15.83,0-28.66-14.61-28.66-32.63V182C75.69,164,88.53,149.39,104.35,149.39Z"/><path id="rect821-0" class="cls-2" d="M49.08,573.13h421.7c15.83,0,28.66,14.61,28.66,32.63v146.6c0,18-12.83,32.63-28.66,32.63H49.08c-15.83,0-28.66-14.61-28.66-32.63V605.77C20.42,587.74,33.25,573.13,49.08,573.13Z"/><g id="layer1"><rect id="rect6035" class="cls-3" x="158.49" y="416.25" width="202.88" height="46.04"/><path id="path4550" class="cls-4" d="M219.46,381.09H300.4v35.41H219.46Z"/><path id="path3731" class="cls-4" d="M184,249.55l75.89-15.18,75.89,15.18V365.91l-75.89,35.41L184,365.91Z"/><path id="path6086" class="cls-5" d="M183.76,292.86l146.64-44.4"/><path id="path6065" class="cls-5" d="M184.27,282.8l124.27-38.7"/><path id="path6088" class="cls-5" d="M183.86,295.27l152-45.35"/><path id="path6045" class="cls-5" d="M271,236.6l-87,20.54"/><rect id="rect4543" class="cls-6" x="234.63" y="381.09" width="50.59" height="40.47"/><path id="path6090" class="cls-5" d="M183.86,297.61l152-45.23"/><path id="path6047" class="cls-5" d="M183.86,259.85l91.25-22.41"/><path id="path6110-3" class="cls-5" d="M184,325.44l151.78-45.08"/><path id="path6092" class="cls-5" d="M335.82,254.79,184,300.14"/><path id="path6049" class="cls-5" d="M184,262.2l94.7-24.06"/><path id="path6110-1" class="cls-5" d="M184,330.5l151.78-45.56"/><path id="path6096" class="cls-5" d="M335.82,259.67,184,305.2"/><path id="path6051" class="cls-5" d="M184,264.73,283,239"/><path id="path6110-2" class="cls-5" d="M184,333.21l151.78-45.53"/><path id="path6100" class="cls-5" d="M335.82,264.73,184,310.26"/><rect id="rect7017" class="cls-7" x="220.88" y="281.62" width="15.08" height="41.01"/><path id="path6053" class="cls-5" d="M285.43,239.47,184,267.62"/><path id="path6110-4" class="cls-5" d="M184,335.56,335.82,290"/><path id="path6104" class="cls-5" d="M184,315.32l151.78-45.53"/><path id="path6055" class="cls-5" d="M287.94,240,184,270.15"/><path id="path6110-33" class="cls-5" d="M184,343.15l151.78-45.7"/><path id="path6108" class="cls-5" d="M184,320.38l151.78-45.53"/><path id="path6057" class="cls-5" d="M290.83,240.52l-107,32.16"/><path id="path6110-47" class="cls-5" d="M184,345.68l151.78-45.53"/><path id="path6110" class="cls-5" d="M184,322.91l151.78-45.53"/><path id="path6059" class="cls-5" d="M183.68,275l111.4-33.63"/><path id="path6061" class="cls-5" d="M183.86,277.2,299.58,242.3"/><path id="path6110-22" class="cls-5" d="M184.22,350.56,336,305"/><path id="path6094" class="cls-5" d="M184,302.67l151.78-45.53"/><path id="path6063" class="cls-5" d="M183.86,279.91l120.35-36.68"/><path id="path6110-07" class="cls-5" d="M183.86,353.27l151.78-45.53"/><path id="path6098" class="cls-5" d="M184,307.73,335.82,262.2"/><path id="path6110-68" class="cls-5" d="M184,355.8l151.78-45.53"/><path id="path6063-8" class="cls-5" d="M183.77,285.34l129.59-40.28"/><path id="path6110-99" class="cls-5" d="M184,358.33l151.78-45.53"/><path id="path6102" class="cls-5" d="M184,312.79l151.78-45.53"/><path id="path6110-27" class="cls-5" d="M183.86,361.22l151.78-45.53"/><path id="path6084" class="cls-5" d="M183.86,290.21l140-43"/><path id="path6110-65" class="cls-5" d="M184,363.2l151.78-45.53"/><path id="path6106" class="cls-5" d="M335.82,272.14,184,317.67"/><path id="path6110-7" class="cls-5" d="M184,365.73,335.82,320.2"/><rect id="rect4548" class="cls-6" x="219.46" y="381.09" width="80.95" height="40.47"/><path id="path6037" class="cls-4" d="M219.46,416.51l-60.71,10.12V462H361.12V426.62L300.4,416.51Z"/><path id="path6041" class="cls-5" d="M263.43,235,184,252.08"/><path id="path6043" class="cls-5" d="M267.36,235.86,184,254.61"/><path id="path6110-6" class="cls-5" d="M184.22,328.33,336,282.8"/><path id="path6110-64" class="cls-5" d="M184,340.62l151.78-45.53"/><path id="path6110-0" class="cls-5" d="M183.86,338.27l151.78-45.53"/><path id="path6110-9" class="cls-5" d="M183.86,348l151.78-45.53"/><path id="path6110-17" class="cls-5" d="M187.33,367.45l148.49-44.64"/><path id="path6110-5" class="cls-5" d="M191.15,369.23l144.85-44"/><path id="path6110-477" class="cls-5" d="M194.47,370.78,336,328"/><path id="path6110-476" class="cls-5" d="M197.39,372.14l138.43-41.46"/><path id="path6110-48" class="cls-5" d="M201,373.81l135-40.42"/><path id="path6110-70" class="cls-5" d="M204.07,375.26,336,335.56"/><path id="path6110-708" class="cls-5" d="M207.29,376.76l128.53-38.67"/><path id="path6110-05" class="cls-5" d="M210.37,378.2l125.44-37.58"/><path id="path6110-8" class="cls-5" d="M213.6,379.71,336,343"/><path id="path6110-87" class="cls-5" d="M216.93,381.09,336,345.86"/><path id="path6110-30" class="cls-5" d="M219.46,383.62,336,348.21"/><path id="path6110-10" class="cls-5" d="M219.46,386.15l116.36-35.41"/><path id="path6110-78" class="cls-5" d="M219.46,388.68l116.36-35.41"/><path id="path6110-95" class="cls-5" d="M219.46,391.21,336,355.8"/><path id="path6110-23" class="cls-5" d="M219.46,393.74l116.36-35.41"/><path id="path6110-25" class="cls-5" d="M219.46,396.27,335.82,361"/><path id="path6110-73" class="cls-5" d="M219.46,398.8l116.36-35.41"/><path id="path6963" class="cls-5" d="M184,307.73l152,58"/><path id="path6110-62" class="cls-5" d="M219.46,401.33,336,365.73"/><path id="path6110-21" class="cls-8" d="M219.46,403.86l101-30.75"/><path id="path6965" class="cls-5" d="M184,302.67,335.82,361"/><path id="path6951" class="cls-5" d="M184,338.21l110.45,47"/><path id="path6110-91" class="cls-8" d="M219.46,406.39l89.8-28.08"/><path id="path6967" class="cls-5" d="M184,297.56l151.78,58.29"/><path id="path6953" class="cls-5" d="M184,333.21,300.4,382.44"/><path id="path6110-98" class="cls-8" d="M219.46,408.92l80.95-25.21"/><path id="path6110-43" class="cls-8" d="M219.46,411.45l81.13-25.12"/><path id="path6110-35" class="cls-8" d="M219.46,414,300.77,389"/><path id="path6110-94" class="cls-5" d="M219.46,416.51l81.13-25.12"/><path id="path6110-995" class="cls-8" d="M158.75,436.74l141.84-42.82"/><path id="path6110-952" class="cls-8" d="M158.75,439.27l141.84-42.82"/><path id="path6969" class="cls-5" d="M184,292.78l151.78,58"/><path id="path6110-63" class="cls-5" d="M184,287.5l134.61-41.38"/><path id="path6993" class="cls-8" d="M335.82,305.08l-147-56.49"/><path id="path6971" class="cls-5" d="M184,287.5l151.78,58.42"/><path id="path6955" class="cls-5" d="M184.22,328.33l121.53,51.08"/><path id="path6995" class="cls-8" d="M335.82,300.14,198.45,246.67"/><path id="path6973" class="cls-5" d="M184.27,282.8l151.55,57.82"/><path id="path6945" class="cls-5" d="M184,353.21l91.24,41"/><path id="path6997" class="cls-8" d="M335.82,295.09l-127-50.48"/><path id="path6975" class="cls-5" d="M184,277.14l151.78,58.47"/><path id="path6957" class="cls-5" d="M184,322.91l128.8,53.73"/><path id="path6999" class="cls-8" d="M335.82,290,219.35,242.49"/><path id="path6977" class="cls-5" d="M184,272.63l151.78,58.05"/><path id="path6949" class="cls-5" d="M184,343.15,289,387.78"/><path id="path7001" class="cls-8" d="M335.82,284.94,228.44,240.67"/><path id="path6979" class="cls-5" d="M184,267.62l151.78,57.69"/><path id="path6959" class="cls-5" d="M184,317.67,320.41,373.1"/><path id="path7003" class="cls-8" d="M335.82,280.37l-97.93-41.58"/><path id="path6981" class="cls-5" d="M184,262.2l151.78,58"/><path id="path6947" class="cls-5" d="M184,348l98.07,43"/><path id="path7005" class="cls-8" d="M335.82,274.85,246.93,237"/><path id="path6983" class="cls-5" d="M184,257.14l151.6,58.54"/><path id="path6961" class="cls-5" d="M184,312.79,327.2,369.94"/><path id="path7007" class="cls-8" d="M335.82,269.79l-82.76-34"/><path id="path6985" class="cls-5" d="M184,252.08l151.78,58.18"/><path id="path7009" class="cls-8" d="M335.82,264.73l-75.89-30.36"/><path id="path4554" class="cls-9" d="M194.16,254.61l65.77-10.12,65.77,10.12V360.86l-65.77,30.36-65.77-30.36Z"/><path id="path6110-49" class="cls-8" d="M158.75,441.8l141.66-43"/><path id="path6110-34" class="cls-8" d="M158.75,444.33l141.66-43"/><path id="path6110-84" class="cls-8" d="M158.75,434.21l54.48-16.67"/><path id="path6110-26" class="cls-8" d="M158.75,431.68l35.31-10.94"/><path id="path6110-51" class="cls-8" d="M158.75,429.15l15.18-5.06"/><path id="path6110-780" class="cls-8" d="M158.75,446.86l141.66-43"/><path id="path6110-870" class="cls-8" d="M158.75,449.39l141.66-43"/><path id="path6110-12" class="cls-8" d="M158.75,451.92l141.66-43"/><path id="path6110-688" class="cls-8" d="M158.75,454.45l141.66-43"/><path id="path6110-04" class="cls-8" d="M158.75,457,300.4,414"/><path id="path6110-75" class="cls-8" d="M158.75,459.51l141.66-43"/><path id="path6110-18" class="cls-8" d="M158.75,462l146.71-44.69"/><path id="path6110-655" class="cls-8" d="M166.59,462l142.27-44.12"/><path id="path6110-103" class="cls-8" d="M174.51,462l138.64-43.41"/><path id="path6110-50" class="cls-8" d="M182.19,462l134.9-42.75"/><path id="path6110-11" class="cls-8" d="M190.28,462,320.75,419.9"/><path id="path6110-41" class="cls-8" d="M197,462,324.36,420.5"/><path id="path6110-76" class="cls-8" d="M204.11,462l124-40.91"/><path id="path6110-871" class="cls-8" d="M211.78,462l119.87-40.32"/><path id="path6110-69" class="cls-8" d="M218.7,462l116.65-39.71"/><path id="path6110-79" class="cls-8" d="M228.23,462.29,339.48,423"/><path id="path6110-90" class="cls-8" d="M235.86,462.29l108.51-38.46"/><path id="path6110-72" class="cls-8" d="M242.22,462l107.05-37.39"/><path id="path6110-620" class="cls-8" d="M247.54,462l106.28-36.63"/><path id="path6110-351" class="cls-8" d="M252.26,462,358.54,426.2"/><path id="path6110-351-5" class="cls-8" d="M261,462l100.09-34.2"/><path id="path6110-351-1" class="cls-8" d="M267.7,462l93.42-32.88"/><path id="path6110-351-6" class="cls-8" d="M274.62,462l86.5-30.36"/><path id="path6110-351-8" class="cls-8" d="M280.1,462l81-27.83"/><path id="path6110-351-0" class="cls-8" d="M287.38,462l73.74-25.3"/><path id="path6110-351-2" class="cls-8" d="M295,462l66.11-22.77"/><path id="path6110-351-7" class="cls-8" d="M301.8,462l59.31-20.24"/><path id="path6110-351-73" class="cls-8" d="M307.77,462l53.35-17.71"/><path id="path6110-351-3" class="cls-8" d="M314.92,462l46.19-15.18"/><path id="path6110-351-80" class="cls-8" d="M322.32,462l38.8-12.65"/><path id="path6110-351-56" class="cls-8" d="M328.64,462l32.48-10.12"/><path id="path6110-351-26" class="cls-8" d="M335.55,462l25.56-7.59"/><path id="path6110-351-4" class="cls-8" d="M343.18,462,361.12,457"/><path id="path6110-351-33" class="cls-8" d="M353.2,462l7.92-2.53"/><path id="path6110-351-5-4" class="cls-8" d="M258.84,462,158.75,426.62"/><path id="path6110-351-6-0" class="cls-8" d="M245.25,462l-86.5-30.36"/><path id="path6110-351-0-6" class="cls-8" d="M232.49,462l-73.74-25.3"/><path id="path6110-351-7-4" class="cls-8" d="M218.06,462,158.75,441.8"/><path id="path6110-351-3-1" class="cls-8" d="M204.94,462l-46.19-15.18"/><path id="path6110-351-56-2" class="cls-8" d="M191.23,462l-32.48-10.12"/><path id="path6110-351-4-1" class="cls-8" d="M176.68,462,158.75,457"/><path id="path6110-351-33-9" class="cls-8" d="M166.66,462l-7.92-2.53"/><path id="path6110-351-1-5" class="cls-8" d="M171.14,424.56,274.62,462"/><path id="path6110-351-8-4" class="cls-8" d="M183.28,422.54,287.38,462"/><path id="path6110-351-2-2" class="cls-8" d="M195.88,420.44,301.8,462"/><path id="path6110-351-73-6" class="cls-8" d="M205.94,418.76l109,43.28"/><path id="path6110-351-80-2" class="cls-8" d="M215.76,417.12,328.64,462"/><path id="path6110-351-26-4" class="cls-8" d="M219.46,414l31.46,12.22L343.18,462"/><path id="path6110-351-33-3" class="cls-8" d="M219.46,408.92,361.12,462"/><path id="path6110-351-1-4" class="cls-8" d="M219.46,403.86,361.12,457"/><path id="path6110-351-8-8" class="cls-8" d="M219.46,398.8l141.66,53.12"/><path id="path6110-351-2-7" class="cls-8" d="M219.46,393.74l141.66,53.12"/><path id="path6110-351-73-5" class="cls-8" d="M219.46,388.68,361.12,441.8"/><path id="path6110-351-80-7" class="cls-8" d="M313.16,418.63l48,18.11"/><path id="path6110-351-26-7" class="cls-8" d="M331.66,421.72l29.46,10"/><path id="path6921" class="cls-8" d="M300.4,414l-37-14.25"/><path id="path6925" class="cls-8" d="M300.4,408.92,270.91,396.2"/><path id="path6929" class="cls-8" d="M300.4,403.86l-21.19-11.53"/><path id="path6933" class="cls-5" d="M300.4,398.8l-15.18-9.28"/><path id="path6937" class="cls-5" d="M300.4,394l-8.15-7.73"/><path id="path6941" class="cls-5" d="M300.77,389l-4.09-4.86"/><path id="path6943" class="cls-5" d="M300.4,386.39l-2-3"/><path id="path6989" class="cls-5" d="M267.47,397.81l-83.26-39.31"/><path id="path6991" class="cls-5" d="M184,363.2l79.32,36.52"/><path id="path7011" class="cls-8" d="M335.82,259.67,287.94,240"/><path id="path7013" class="cls-8" d="M335.82,254.79l-22.46-9.73"/><rect id="rect7019" class="cls-10" x="224.52" y="279.91" width="7.59" height="35.41"/><rect id="rect7019-9" class="cls-10" x="287.76" y="279.91" width="7.59" height="35.41"/></g><text class="cls-11" transform="translate(54.46 99.02)">1</text><text class="cls-12" transform="translate(59.89 620.54)">Choisissez un joueur et un <tspan x="30.6" y="45">nom de carte (excepté </tspan><tspan x="-27.19" y="90">“Soldat”). Si le joueur possède </tspan><tspan x="13.21" y="135">cette carte, il est éliminé</tspan></text><text class="cls-13" transform="translate(248.51 93.58)">Soldat</text></svg>