<svg id="svg8" xmlns="http://www.w3.org/2000/svg" viewBox="0 0 519.86 805.43"><defs><style>.cls-1{fill:#227a94;fill-opacity:0.99;stroke:#505157;stroke-width:4px;}.cls-1,.cls-2{stroke-linecap:square;stroke-linejoin:round;}.cls-2{fill:#f5efff;stroke:#5eacc6;stroke-width:7px;}.cls-3,.cls-4,.cls-9{fill:#b3b3b3;}.cls-3,.cls-4,.cls-5,.cls-6,.cls-7,.cls-8,.cls-9{stroke:#000;}.cls-3{stroke-width:0.87px;}.cls-4{stroke-width:1.27px;}.cls-5,.cls-7,.cls-8{fill:none;}.cls-5{stroke-width:0.67px;}.cls-6{fill:#00000c;stroke-width:0.66px;}.cls-7{stroke-width:0.76px;}.cls-8{stroke-width:0.26px;}.cls-9{stroke-width:2.69px;}.cls-10{font-size:93px;font-family:Magra-Bold, Magra;font-weight:700;}.cls-10,.cls-11,.cls-12{fill:#505157;}.cls-11{font-size:65px;}.cls-11,.cls-12{font-family:Magra, Magra;}.cls-12{font-size:36px;}</style></defs><title>Plan de travail 7</title><path id="rect815" class="cls-1" d="M55.37,2H464.5C494,2,517.86,29.21,517.86,62.77v679.9c0,33.56-23.89,60.77-53.37,60.77H55.37C25.89,803.43,2,776.22,2,742.66V62.77C2,29.21,25.89,2,55.37,2Z"/><ellipse id="path817" class="cls-2" cx="75.69" cy="75.69" rx="57.04" ry="55.27"/><path id="rect821" class="cls-2" d="M196.47,20.42H470.78c15.83,0,28.66,14.61,28.66,32.63V90c0,18-12.83,32.63-28.66,32.63H196.47c-15.83,0-28.66-14.61-28.66-32.63V53.06C167.81,35,180.64,20.42,196.47,20.42Z"/><path id="rect821-1" class="cls-2" d="M104.35,149.39H415.51c15.83,0,28.66,14.61,28.66,32.63V512.86c0,18-12.83,32.63-28.66,32.63H104.35c-15.83,0-28.66-14.61-28.66-32.63V182C75.69,164,88.53,149.39,104.35,149.39Z"/><path id="rect821-0" class="cls-2" d="M49.08,573.13h421.7c15.83,0,28.66,14.61,28.66,32.63v146.6c0,18-12.83,32.63-28.66,32.63H49.08c-15.83,0-28.66-14.61-28.66-32.63V605.77C20.42,587.74,33.25,573.13,49.08,573.13Z"/><g id="layer1"><path id="path6037" class="cls-3" d="M225.17,427.11l-58.85,9.81v34.33H362.48V436.92l-58.85-9.81Z"/><path id="path4847" class="cls-4" d="M252.81,441l-4.62-.33c-17.89-1.25-30.31-4.36-34.92-8.75-1.56-1.49-1.63-1.76-.91-3.86.46-1.34,12.94-32.72,13.09-32.9s2.47,1,22.28,10.16c8.78,4.07,16.26,7.46,16.61,7.53.83.17.64.25,18.43-8,19.7-9.16,20.49-9.51,20.68-9.3s3.21,7.81,6.92,17.12c5.21,13.07,6.72,17.08,6.6,17.54a6.21,6.21,0,0,1-1.39,1.82c-3,2.93-10.76,5.54-21.16,7.13C284.28,440.7,280.21,441,266.1,441c-6.74,0-12.72,0-13.29,0Z"/><path id="path3731" class="cls-3" d="M191.17,264.29l73.56-14.71,73.56,14.71V377.08l-73.56,34.33-73.56-34.33Z"/><path id="path4707" class="cls-5" d="M220.26,284.89l44.14,9.81,44.14-9.81v34.33L264.4,336.38l-44.14-17.16Z"/><rect id="rect4709" class="cls-6" x="225.17" y="289.79" width="4.9" height="29.42"/><rect id="rect4709-5" class="cls-6" x="254.43" y="297.8" width="4.9" height="33.02"/><rect id="rect4709-34" class="cls-6" x="279.28" y="294.21" width="4.74" height="32.37"/><rect id="rect4709-53" class="cls-6" x="289.74" y="291.75" width="4.9" height="30.73"/><rect id="rect4709-1" class="cls-6" x="298.89" y="289.79" width="4.9" height="29.42"/><rect id="rect4709-5-4" class="cls-6" x="269.14" y="297.64" width="4.9" height="33.02"/><rect id="rect4709-34-7" class="cls-6" x="244.62" y="294.53" width="5.07" height="32.04"/><rect id="rect4709-53-4" class="cls-6" x="234.65" y="291.75" width="4.9" height="30.73"/><path id="path4705" class="cls-7" d="M264.73,249.58V411.41"/><path id="path4829" class="cls-8" d="M225.17,392.78l-14.71,36.78"/><path id="path4831" class="cls-8" d="M303.64,392.78l14.71,36.78c-2.45,17.16-105.44,17.16-107.89,0"/><path id="path4845" class="cls-9" d="M256,441.93c-15.65-.67-28-2.46-35.81-5.2-4.58-1.6-8.25-4.1-9.12-6.2-.33-.81-.33-.82,6.76-18.54,3.9-9.75,7.15-17.79,7.23-17.86s9,4,19.76,9,19.73,9.17,19.86,9.17,9-4.07,19.63-9.05,19.42-9,19.46-9,3.25,8,7.15,17.79L318,429.8l-.42.88c-2.78,5.86-19.1,10.08-43.2,11.17-4.56.21-14.43.25-18.38.08Z"/></g><text class="cls-10" transform="translate(52.46 95.21)">3</text><text class="cls-11" transform="translate(241.53 88.76)">Knight</text><text class="cls-12" transform="translate(41.07 619.98)">Choose a player and compare <tspan x="4.07" y="47">your hand with his hand. The </tspan><tspan x="5.04" y="94">player who has the card with </tspan><tspan x="-6.41" y="141">the lowest value is eliminated.</tspan></text></svg>