<svg id="svg8" xmlns="http://www.w3.org/2000/svg" viewBox="0 0 519.86 805.43"><defs><style>.cls-1{fill:#227a94;fill-opacity:0.99;stroke:#505157;stroke-width:4px;}.cls-1,.cls-2{stroke-linecap:square;stroke-linejoin:round;}.cls-2{fill:#f5efff;stroke:#5eacc6;stroke-width:7px;}.cls-3{fill:#ffe5ab;}.cls-3,.cls-4,.cls-5,.cls-6,.cls-7,.cls-8{stroke:#000;}.cls-3,.cls-4{stroke-width:0.87px;}.cls-4{fill:#00000c;}.cls-5{fill:#ff5aab;stroke-width:1.07px;}.cls-6{fill:#ffd42a;}.cls-6,.cls-7{stroke-width:0.26px;}.cls-7{fill:#d4aa00;}.cls-8{fill:#ff0;stroke-width:0.96px;}.cls-9{font-size:93px;font-family:Magra-Bold, Magra;font-weight:700;}.cls-10,.cls-11,.cls-9{fill:#505157;}.cls-10{font-size:44px;}.cls-10,.cls-11{font-family:Magra, Magra;}.cls-11{font-size:65px;}</style></defs><title>Plan de travail 15</title><path id="rect815" class="cls-1" d="M55.37,2H464.5C494,2,517.86,29.21,517.86,62.77v679.9c0,33.56-23.89,60.77-53.37,60.77H55.37C25.89,803.43,2,776.22,2,742.66V62.77C2,29.21,25.89,2,55.37,2Z"/><ellipse id="path817" class="cls-2" cx="75.69" cy="75.69" rx="57.04" ry="55.27"/><path id="rect821" class="cls-2" d="M196.47,20.42H470.78c15.83,0,28.66,14.61,28.66,32.63V90c0,18-12.83,32.63-28.66,32.63H196.47c-15.83,0-28.66-14.61-28.66-32.63V53.06C167.81,35,180.64,20.42,196.47,20.42Z"/><path id="rect821-1" class="cls-2" d="M104.35,149.39H415.51c15.83,0,28.66,14.61,28.66,32.63V512.86c0,18-12.83,32.63-28.66,32.63H104.35c-15.83,0-28.66-14.61-28.66-32.63V182C75.69,164,88.53,149.39,104.35,149.39Z"/><path id="rect821-0" class="cls-2" d="M49.08,573.13h421.7c15.83,0,28.66,14.61,28.66,32.63v146.6c0,18-12.83,32.63-28.66,32.63H49.08c-15.83,0-28.66-14.61-28.66-32.63V605.77C20.42,587.74,33.25,573.13,49.08,573.13Z"/><g id="layer1"><path id="path4550" class="cls-3" d="M223.14,401.81h82.42v36.06H223.14Z"/><path id="path3731" class="cls-3" d="M186.93,266.57l77.27-15.45,77.27,15.45V385L264.2,421.11,186.93,385Z"/><path id="path6037" class="cls-3" d="M222.65,437.59l-61.82,10.3V484H366.89V447.9l-61.82-10.3Z"/><rect id="rect7019" class="cls-4" x="289.62" y="308.81" width="7.73" height="36.06"/><rect id="rect7019-9" class="cls-4" x="230.38" y="308.81" width="7.73" height="36.06"/><path id="path824" class="cls-5" d="M163.41,484c12.12-8.63,10.13-22,7.48-37.74l25.71-4.29c68.24,39,102.82,14.79,134.24,0l25.49,4.25C353.7,466.76,359,473.8,366.89,484Z"/><path id="path826" class="cls-6" d="M207.19,277.9,195.86,389.69l-6.7,53.06L186.59,484H160.83l2.58-36.06,12.88-190.6,87.58-15.45,87.57,15.45,12.88,190.6L366.89,484H343.71l-4.16-41.21-6.7-53.06L320.53,277.9l-56.67-10.3Z"/><path id="path838" class="cls-7" d="M195.86,389.69l27.28,12.12-.49,35.79-33.48,5.15Z"/><path id="path838-3" class="cls-7" d="M332.85,389.69l-27.28,12.12.49,35.79,33.48,5.15Z"/><path id="path855" class="cls-8" d="M181.44,257.29v-5.15l10.3-5.15,5.15-15.45L202,247l5.15-5.15,5.15-15.45,5.15,15.45,5.15-5.15,5.15-15.45L233,236.69l5.15-5.15,5.15-15.45,5.15,15.45,5.15-5.15,10.3-15.45,10.3,15.45,5.15,5.15,5.15-15.45,5.15,15.45,5.15,5.15,5.15-15.45,5.15,15.45,5.15,5.15,5.15-15.45,5.15,15.45,5.15,5.15,5.15-15.45L336,247l10.3,5.15v5.15l-82.42-15.45Z"/></g><text class="cls-9" transform="translate(49.46 109.02)">8</text><text class="cls-10" transform="translate(41.21 667.64)">If you play this card, you <tspan x="87.84" y="52.8">are eliminated</tspan></text><text class="cls-11" transform="translate(220.14 93.58)">Princess</text></svg>