<svg id="svg8" xmlns="http://www.w3.org/2000/svg" viewBox="0 0 519.86 805.43"><defs><style>.cls-1{fill:#227a94;fill-opacity:0.99;stroke:#505157;stroke-width:4px;}.cls-1,.cls-2{stroke-linecap:square;stroke-linejoin:round;}.cls-2{fill:#f5efff;stroke:#5eacc6;stroke-width:7px;}.cls-3{fill:#ffe5ab;}.cls-3,.cls-4,.cls-5,.cls-6,.cls-8{stroke:#000;}.cls-3,.cls-4,.cls-8{stroke-width:0.87px;}.cls-4{fill:#00000c;}.cls-5{fill:#d40000;}.cls-5,.cls-6{stroke-width:0.26px;}.cls-6{fill:#b7c8c4;}.cls-7{fill:#502d16;stroke:#000001;stroke-width:0.56px;}.cls-8{fill:#fc0;}.cls-9{font-size:93px;font-family:Magra-Bold, Magra;font-weight:700;}.cls-10,.cls-11,.cls-9{fill:#505157;}.cls-10{font-size:44px;}.cls-10,.cls-11{font-family:Magra, Magra;}.cls-11{font-size:65px;}</style></defs><title>Plan de travail 16</title><path id="rect815" class="cls-1" d="M55.37,2H464.5C494,2,517.86,29.21,517.86,62.77v679.9c0,33.56-23.89,60.77-53.37,60.77H55.37C25.89,803.43,2,776.22,2,742.66V62.77C2,29.21,25.89,2,55.37,2Z"/><ellipse id="path817" class="cls-2" cx="75.69" cy="75.69" rx="57.04" ry="55.27"/><path id="rect821" class="cls-2" d="M196.47,20.42H470.78c15.83,0,28.66,14.61,28.66,32.63V90c0,18-12.83,32.63-28.66,32.63H196.47c-15.83,0-28.66-14.61-28.66-32.63V53.06C167.81,35,180.64,20.42,196.47,20.42Z"/><path id="rect821-1" class="cls-2" d="M104.35,149.39H415.51c15.83,0,28.66,14.61,28.66,32.63V512.86c0,18-12.83,32.63-28.66,32.63H104.35c-15.83,0-28.66-14.61-28.66-32.63V182C75.69,164,88.53,149.39,104.35,149.39Z"/><path id="rect821-0" class="cls-2" d="M49.08,573.13h421.7c15.83,0,28.66,14.61,28.66,32.63v146.6c0,18-12.83,32.63-28.66,32.63H49.08c-15.83,0-28.66-14.61-28.66-32.63V605.77C20.42,587.74,33.25,573.13,49.08,573.13Z"/><g id="layer1"><path id="path4550" class="cls-3" d="M220,402H300.8v35.34H220Z"/><path id="path3731" class="cls-3" d="M184.54,269.44l75.73-15.15L336,269.44V385.56L260.27,420.9l-75.73-35.34Z"/><path id="path6037" class="cls-3" d="M219.54,437.06,159,447.16V482.5H360.91V447.16l-60.58-10.1Z"/><rect id="rect7019" class="cls-4" x="285.17" y="310.84" width="7.57" height="35.34"/><rect id="rect7019-9" class="cls-4" x="227.11" y="310.84" width="7.57" height="35.34"/><path id="path824" class="cls-5" d="M206.92,439.58c35.36,16.17,69.93,17.48,103.5,0l50.49,7.57V482.5H159V447.16Z"/><path id="path828" class="cls-6" d="M171.58,444.63c2.73,15.53,4,29.46,0,37.87H348.28c-4.84-12.62-1.5-25.24,0-37.87l-20.19-2.52c-45.81,35.17-92.13,32.11-138.84,0Z"/><path id="path829" class="cls-7" d="M189.25,341.13l-15.15,10.1,10.1-90.88,75.73-15.15,75.73,15.15,10.1,90.88-15.15-10.1-15.15-60.58-55.54-10.1-55.54,10.1Z"/><path id="path831" class="cls-8" d="M196.82,260.35V235.11l7.57-7.57,10.1,15.15,12.62-20.19,10.1,20.19,22.72-30.29,22.72,30.29,12.62-20.19,10.1,20.19L318,227.54l5,7.57v25.24c-43.15,11.12-89.33,9-126.22,0Z"/></g><text class="cls-9" transform="translate(49.46 108.03)">8</text><text class="cls-10" transform="translate(41.21 667.64)">If you play this card, you <tspan x="87.84" y="52.8">are eliminated</tspan></text><text class="cls-11" transform="translate(248.02 93.58)">Prince</text></svg>