<svg id="svg8" xmlns="http://www.w3.org/2000/svg" viewBox="0 0 519.86 805.43"><defs><style>.cls-1{fill:#227a94;fill-opacity:0.99;stroke:#505157;stroke-width:4px;}.cls-1,.cls-2{stroke-linecap:square;stroke-linejoin:round;}.cls-2{fill:#f5efff;stroke:#5eacc6;stroke-width:7px;}.cls-3{fill:#a00;stroke-width:1.07px;}.cls-3,.cls-4,.cls-5,.cls-6,.cls-7,.cls-8{stroke:#000;}.cls-4,.cls-8{fill:#fd5;}.cls-4,.cls-6{stroke-width:0.87px;}.cls-5{fill:#ffe5ab;stroke-width:0.76px;}.cls-6{fill:#00000c;}.cls-7{fill:none;stroke-width:0.26px;}.cls-8{stroke-width:0.71px;}.cls-9{font-size:93px;font-family:Magra-Bold, Magra;font-weight:700;}.cls-10,.cls-11,.cls-9{fill:#505157;}.cls-10{font-size:65px;}.cls-10,.cls-11{font-family:Magra, Magra;}.cls-11{font-size:44px;}</style></defs><title>Plan de travail 5</title><path id="rect815" class="cls-1" d="M55.37,2H464.5C494,2,517.86,29.21,517.86,62.77v679.9c0,33.56-23.89,60.77-53.37,60.77H55.37C25.89,803.43,2,776.22,2,742.66V62.77C2,29.21,25.89,2,55.37,2Z"/><ellipse id="path817" class="cls-2" cx="75.69" cy="75.69" rx="57.04" ry="55.27"/><path id="rect821" class="cls-2" d="M196.47,20.42H470.78c15.83,0,28.66,14.61,28.66,32.63V90c0,18-12.83,32.63-28.66,32.63H196.47c-15.83,0-28.66-14.61-28.66-32.63V53.06C167.81,35,180.64,20.42,196.47,20.42Z"/><path id="rect821-1" class="cls-2" d="M104.35,149.39H415.51c15.83,0,28.66,14.61,28.66,32.63V512.86c0,18-12.83,32.63-28.66,32.63H104.35c-15.83,0-28.66-14.61-28.66-32.63V182C75.69,164,88.53,149.39,104.35,149.39Z"/><path id="rect821-0" class="cls-2" d="M49.08,573.13h421.7c15.83,0,28.66,14.61,28.66,32.63v146.6c0,18-12.83,32.63-28.66,32.63H49.08c-15.83,0-28.66-14.61-28.66-32.63V605.77C20.42,587.74,33.25,573.13,49.08,573.13Z"/><g id="layer1"><path id="path830" class="cls-3" d="M239.58,259.48l-9.88-41.4,34.57-10.35,34.57,10.35L289,259.48l-24.69-5.17Z"/><path id="path3731" class="cls-4" d="M190.52,268.79l74.08-15.52,74.08,15.52v119L264.6,424,190.52,387.8Z"/><path id="path6037" class="cls-4" d="M224.76,440.58,165.5,450.93v36.22H363V450.93l-59.26-10.35Z"/><path id="path4554" class="cls-5" d="M239.58,363l-19.75-10.35V280.17l34.57,31v41.4l9.88,12.94,9.88-12.94v-41.4l34.57-31v72.44L289,363v49.16l-24.69,12.94-24.69-12.94Z"/><rect id="rect7019" class="cls-6" x="288.96" y="311.22" width="7.41" height="36.22"/><rect id="rect7019-9" class="cls-6" x="232.17" y="311.22" width="7.41" height="36.22"/><path id="path832" class="cls-7" d="M233.81,216.85l9.86,40.8-4.54-42.4"/><path id="path832-2" class="cls-7" d="M239.13,215.26l9.86,40.8-4.54-42.4"/><path id="path832-6" class="cls-7" d="M244.46,213.66l9.86,40.8-4.54-42.4"/><path id="path832-65" class="cls-7" d="M249.79,212.07l9.91,42.23-4.58-43.82"/><path id="path832-0" class="cls-7" d="M255.11,210.47l9.48,42.8-4.16-44.39"/><path id="path832-9" class="cls-7" d="M274.47,210.79l-9.88,42.48,4.83-44"/><path id="path832-02" class="cls-7" d="M279.81,212.38l-9.89,42.48,4.55-44.08"/><path id="path832-5" class="cls-7" d="M285.79,214.17l-10.5,41.33,4.52-43.12"/><path id="path832-5-2" class="cls-7" d="M291.77,216l-10.51,40.79,4.53-42.58"/><path id="path832-5-8" class="cls-7" d="M297.75,217.75l-11.33,40.09L291.77,216"/><path id="path906" class="cls-7" d="M264.27,207.73l.33,45.54"/><path id="path4845" class="cls-8" d="M255.87,455.26c-15.76-.7-28.16-2.59-36.06-5.49-4.61-1.69-8.31-4.32-9.18-6.54-.34-.85-.33-.86,6.8-19.56,3.93-10.29,7.2-18.77,7.28-18.85s9,4.21,19.9,9.53,19.87,9.67,20,9.68,9-4.3,19.76-9.55S303.92,405,304,405s3.27,8.48,7.2,18.77l7.14,18.71-.42.93c-2.8,6.18-19.24,10.64-43.5,11.78-4.6.22-14.53.26-18.51.08Z"/></g><text class="cls-9" transform="translate(52.46 106.03)">6</text><text class="cls-10" transform="translate(225.18 93.58)">General</text><text class="cls-11" transform="translate(77.45 640.04)">Choose a player and <tspan x="-45.74" y="52.8">exchange your hand with </tspan><tspan x="103.46" y="105.6">his hand</tspan></text></svg>