<svg id="svg8" xmlns="http://www.w3.org/2000/svg" viewBox="0 0 519.86 805.43"><defs><style>.cls-1{fill:#227a94;fill-opacity:0.99;stroke:#505157;stroke-width:4px;}.cls-1,.cls-2{stroke-linecap:square;stroke-linejoin:round;}.cls-2{fill:#f5efff;stroke:#5eacc6;stroke-width:7px;}.cls-3{fill:#ffe4ab;}.cls-10,.cls-3,.cls-4,.cls-5,.cls-6,.cls-7,.cls-8,.cls-9{stroke:#000;}.cls-3,.cls-4,.cls-5,.cls-7{stroke-width:0.87px;}.cls-4,.cls-8{fill:#803300;}.cls-5{fill:#874e15;fill-opacity:0.78;}.cls-6{fill:#ffe5ab;stroke-width:0.76px;}.cls-7{fill:#00000c;}.cls-8{stroke-width:0.26px;}.cls-9{fill:none;stroke-width:1.16px;stroke-dasharray:9.32 1.16;}.cls-10{fill:#520;stroke-width:0.56px;}.cls-11{font-size:93px;font-family:Magra-Bold, Magra;font-weight:700;}.cls-11,.cls-12,.cls-13{fill:#505157;}.cls-12{font-size:65px;}.cls-12,.cls-13{font-family:Magra, Magra;}.cls-13{font-size:36px;}</style></defs><title>Plan de travail 10</title><path id="rect815" class="cls-1" d="M55.37,2H464.5C494,2,517.86,29.21,517.86,62.77v679.9c0,33.56-23.89,60.77-53.37,60.77H55.37C25.89,803.43,2,776.22,2,742.66V62.77C2,29.21,25.89,2,55.37,2Z"/><ellipse id="path817" class="cls-2" cx="75.69" cy="75.69" rx="57.04" ry="55.27"/><path id="rect821" class="cls-2" d="M196.47,20.42H470.78c15.83,0,28.66,14.61,28.66,32.63V90c0,18-12.83,32.63-28.66,32.63H196.47c-15.83,0-28.66-14.61-28.66-32.63V53.06C167.81,35,180.64,20.42,196.47,20.42Z"/><path id="rect821-1" class="cls-2" d="M104.35,149.39H415.51c15.83,0,28.66,14.61,28.66,32.63V512.86c0,18-12.83,32.63-28.66,32.63H104.35c-15.83,0-28.66-14.61-28.66-32.63V182C75.69,164,88.53,149.39,104.35,149.39Z"/><path id="rect821-0" class="cls-2" d="M49.08,573.13h421.7c15.83,0,28.66,14.61,28.66,32.63v146.6c0,18-12.83,32.63-28.66,32.63H49.08c-15.83,0-28.66-14.61-28.66-32.63V605.77C20.42,587.74,33.25,573.13,49.08,573.13Z"/><g id="layer1"><path id="path4550" class="cls-3" d="M224.95,385.75h78.74v34.45H224.95Z"/><path id="path3731" class="cls-4" d="M190.36,256.55l73.82-14.76L338,256.55V369.74l-73.82,34.45-73.82-34.45Z"/><path id="path6037" class="cls-5" d="M224.48,419.93l-59.05,9.84v34.45H362.27V429.77l-59.05-9.84Z"/><path id="path4554" class="cls-6" d="M199.87,262.46l64,4.92,64-4.92,0,112-64,30.69-63.77-30.9Z"/><rect id="rect7019" class="cls-7" x="288.45" y="296.9" width="7.38" height="34.45"/><rect id="rect7019-9" class="cls-7" x="231.86" y="296.9" width="7.38" height="34.45"/><path id="path830" class="cls-8" d="M224.95,420.19l-44.1,7c52.28,3.26,105.64,3.88,161.84-.69l-39.48-6.58Z"/><path id="path834" class="cls-9" d="M217.09,419.93c29.1,19.18,63.53,20.18,93.5,0"/><path id="path832" class="cls-10" d="M268.77,432.23v7.38h9.84V447h-9.84v14.76h-7.38V447h-9.84v-7.38h9.84v-7.38Z"/></g><text class="cls-11" transform="translate(49.46 96.03)">4</text><text class="cls-12" transform="translate(250.76 93.58)">Priest</text><text class="cls-13" transform="translate(45.14 639.73)">Until you next tour, you can’t <tspan x="31.99" y="47">be affected by the card’s </tspan><tspan x="-0.61" y="94">effect from the other players</tspan></text></svg>