<svg id="svg8" xmlns="http://www.w3.org/2000/svg" viewBox="0 0 519.86 805.43"><defs><style>.cls-1{fill:#227a94;fill-opacity:0.99;stroke:#505157;stroke-width:4px;}.cls-1,.cls-2,.cls-6{stroke-linecap:square;stroke-linejoin:round;}.cls-2{fill:#f5efff;stroke:#5eacc6;stroke-width:7px;}.cls-3{fill:#ffe5ab;}.cls-3,.cls-4,.cls-5,.cls-6,.cls-7,.cls-8,.cls-9{stroke:#000;}.cls-3,.cls-4,.cls-5{stroke-width:0.87px;}.cls-4{fill:#005;}.cls-5{fill:#00000c;}.cls-6,.cls-7{fill:#214478;}.cls-6{stroke-width:1.37px;}.cls-7{stroke-width:1.26px;}.cls-8{fill:#e6e6e6;stroke-width:0.56px;}.cls-9{fill:none;stroke-width:0.26px;}.cls-10{font-size:93px;font-family:Magra-Bold, Magra;font-weight:700;}.cls-10,.cls-11,.cls-12{fill:#505157;}.cls-11{font-size:41px;}.cls-11,.cls-12{font-family:Magra, Magra;}.cls-12{font-size:65px;}</style></defs><title>Plan de travail 13</title><path id="rect815" class="cls-1" d="M55.37,2H464.5C494,2,517.86,29.21,517.86,62.77v679.9c0,33.56-23.89,60.77-53.37,60.77H55.37C25.89,803.43,2,776.22,2,742.66V62.77C2,29.21,25.89,2,55.37,2Z"/><ellipse id="path817" class="cls-2" cx="75.69" cy="75.69" rx="57.04" ry="55.27"/><path id="rect821" class="cls-2" d="M196.47,20.42H470.78c15.83,0,28.66,14.61,28.66,32.63V90c0,18-12.83,32.63-28.66,32.63H196.47c-15.83,0-28.66-14.61-28.66-32.63V53.06C167.81,35,180.64,20.42,196.47,20.42Z"/><path id="rect821-1" class="cls-2" d="M104.35,149.39H415.51c15.83,0,28.66,14.61,28.66,32.63V512.86c0,18-12.83,32.63-28.66,32.63H104.35c-15.83,0-28.66-14.61-28.66-32.63V182C75.69,164,88.53,149.39,104.35,149.39Z"/><path id="rect821-0" class="cls-2" d="M49.08,573.13h421.7c15.83,0,28.66,14.61,28.66,32.63v146.6c0,18-12.83,32.63-28.66,32.63H49.08c-15.83,0-28.66-14.61-28.66-32.63V605.77C20.42,587.74,33.25,573.13,49.08,573.13Z"/><g id="layer1"><path id="path4550" class="cls-3" d="M213.08,436.28H301v38.47H213.08Z"/><path id="path3731" class="cls-3" d="M174.45,292l82.44-16.49L339.32,292v126.4l-82.44,38.47-82.44-38.47Z"/><path id="path6037" class="cls-4" d="M212.55,474.46l-65.95,11v38.47H366.43V485.45l-65.95-11Z"/><rect id="rect7019" class="cls-5" x="283.99" y="337.07" width="8.24" height="38.47"/><rect id="rect7019-9" class="cls-5" x="220.79" y="337.07" width="8.24" height="38.47"/><path id="path824" class="cls-6" d="M163.09,482.71c67.6,45.17,128.71,35.17,186.85,0l-49.46-8.24H212.55Z"/><path id="path1134" class="cls-4" d="M97.14,326.08c105.56,9.64,250.38-1.57,318.75-22v-11l-318.75,22Z"/><path id="path1136" class="cls-7" d="M130.11,315.09l33-44,22-33,22-22,22-22,65.95-22h65.95l-44,33-11,22,11,22,16.49,16.49,44,33C289.3,316,198.06,320.51,130.11,315.09Z"/><path id="path1138" class="cls-8" d="M174.08,403l-5.5,5.5,11,38.47,27.48,16.49L223.54,480,240,496.45l16.49,11,16.49-11L289.49,480,306,463.47,333.45,447l11-38.47L339,403H174.08"/><path id="path1140" class="cls-9" d="M179.58,403l5.5,11-11,5.5,11,11-7.07,11,12.57,11"/><path id="path1142" class="cls-9" d="M168.58,408.51l5.5,11h16.49l-5.5,11,11,11-5.5,11"/><path id="path1144" class="cls-9" d="M196.06,403l-11,11,5.5,5.5,11,11-5.5,11,16.49,5.5-5.5,16.49"/><path id="path1146" class="cls-9" d="M196.06,403l16.49,16.49h-22l27.48,11-22,11h27.48l-11,16.49,11,11v11l19.23,2.75-8.24,8.24,21.93,5.7-6.11,6.68,12.62-.2"/><path id="path1148" class="cls-9" d="M196.06,441.49l11,22"/><path id="path1150" class="cls-9" d="M207.05,463.47l5.5-5.5"/><path id="path1152" class="cls-9" d="M223.54,469l-5.5,5.5"/><path id="path1154" class="cls-9" d="M223.54,441.49l11,11-11,16.49"/><path id="path1156" class="cls-9" d="M234.53,452.48l-22,16.49h11"/><path id="path1158" class="cls-9" d="M242.78,482.71,223.54,469"/><path id="path1170" class="cls-9" d="M212.55,447l11-5.5"/><path id="path1172" class="cls-9" d="M212.55,430.5H218"/><path id="path1188" class="cls-9" d="M174.85,430.46l37.7,0"/><path id="path1140-4" class="cls-9" d="M333.45,403,328,414l11,5.5-11,11,7.07,11-12.57,11"/><path id="path1142-5" class="cls-9" d="M344.45,408.51l-5.5,11H322.46l5.5,11-11,11,5.5,11"/><path id="path1144-0" class="cls-9" d="M317,403l11,11-5.5,5.5-11,11,5.5,11L300.48,447l5.5,16.49"/><path id="path1146-4" class="cls-9" d="M317,403l-16.49,16.49h22L295,430.5l22,11H289.49l11,16.49-11,11v11l-19.23,2.75L278.5,491l-21.93,5.7,6.11,6.68-12.62-.2"/><path id="path1148-9" class="cls-9" d="M317,441.49l-11,22"/><path id="path1150-6" class="cls-9" d="M306,463.47l-5.5-5.5"/><path id="path1152-6" class="cls-9" d="M289.49,469l5.5,5.5"/><path id="path1154-9" class="cls-9" d="M289.49,441.49l-11,11,11,16.49"/><path id="path1156-9" class="cls-9" d="M278.5,452.48l22,16.49h-11"/><path id="path1158-4" class="cls-9" d="M270.25,482.71,289.49,469"/><path id="path1170-8" class="cls-9" d="M300.48,447l-11-5.5"/><path id="path1172-7" class="cls-9" d="M300.48,430.5H295"/><path id="path1188-9" class="cls-9" d="M338.18,430.46l-37.7,0"/><path id="path1445" class="cls-9" d="M212.55,419.51l5.5,11,5.5,11H251l-16.49,11,22,44"/><path id="path1445-3" class="cls-9" d="M300.48,419.51l-5.5,11-5.5,11H262l16.49,11-22,44"/><path id="path1462" class="cls-9" d="M223.54,469h19.23v13.74l5.5,5.5-2.75,5.5v5.5l11-2.75-5.5-55-11-22-16.49,22,2.75-30.23-13.74,8.24L218,403"/><path id="path1462-7" class="cls-9" d="M289.49,469H270.25v13.74l-5.5,5.5,2.75,5.5v5.5l-11-2.75,5.5-55,11-22,16.49,22-2.75-30.23,13.74,8.24L295,403"/><path id="path1479" class="cls-9" d="M226.29,411.26,240,419.51l22,22L242.78,469,262,485.45"/><path id="path1479-8" class="cls-9" d="M286.74,411.26,273,419.51l-22,22L270.25,469,251,485.45"/><path id="path1496" class="cls-9" d="M218,403l8.24,8.24L240,403v16.49L256.51,403,251,430.5l-13.74,11,5.5,5.5,5.5,13.74"/><path id="path1496-6" class="cls-9" d="M295,403l-8.24,8.24L273,403v16.49L256.51,403,262,430.5l13.74,11-5.5,5.5-5.5,13.74"/><path id="path1513" class="cls-9" d="M264.76,460.72H248.27l22,8.24"/><path id="path1517" class="cls-9" d="M242.78,469l22-8.24"/><path id="path1519" class="cls-9" d="M237.28,441.49l-11-30.23"/><path id="path1521" class="cls-9" d="M275.75,441.49l11-30.23"/><path id="path1523" class="cls-9" d="M278.5,452.48l-2.75-11"/><path id="path1525" class="cls-9" d="M237.28,441.49l-2.75,11"/><path id="path1527" class="cls-9" d="M240,419.51h33"/><path id="path1529" class="cls-9" d="M251,430.5h11"/></g><text class="cls-10" transform="translate(54.46 99.02)">5</text><text class="cls-11" transform="translate(104.91 626.56)">Choose a player or <tspan x="-18.41" y="43">yourself. The chosen </tspan><tspan x="-51.6" y="86">player loses his card and </tspan><tspan x="2.23" y="129">takes another one</tspan></text><text class="cls-12" transform="translate(219.03 93.58)">Sorcerer</text></svg>